<svg width="120" height="120" viewBox="0 0 120 120" fill="none" xmlns="http://www.w3.org/2000/svg">
<path d="M114 35.4167C104.649 15.1056 84.0685 1 60.1832 1C27.4972 1 1 27.4152 1 60C1 92.5848 27.4972 119 60.1832 119C63.8894 119 67.516 118.66 71.0334 118.011" stroke="black"/>
<path d="M118.64 110.9H75.08V99.92L94.79 82.64C98.15 79.7 100.61 77.06 102.17 74.72C103.73 72.32 104.51 69.74 104.51 66.98V65.81C104.51 63.05 103.61 60.95 101.81 59.51C100.01 58.01 97.82 57.26 95.24 57.26C92 57.26 89.54 58.19 87.86 60.05C86.18 61.85 84.98 64.04 84.26 66.62L74 62.66C74.66 60.56 75.59 58.58 76.79 56.72C77.99 54.8 79.49 53.12 81.29 51.68C83.15 50.24 85.31 49.1 87.77 48.26C90.23 47.42 93.05 47 96.23 47C99.53 47 102.47 47.48 105.05 48.44C107.63 49.34 109.79 50.63 111.53 52.31C113.33 53.99 114.68 55.97 115.58 58.25C116.54 60.53 117.02 63.02 117.02 65.72C117.02 68.36 116.6 70.76 115.76 72.92C114.92 75.08 113.78 77.15 112.34 79.13C110.9 81.05 109.22 82.91 107.3 84.71C105.38 86.45 103.34 88.22 101.18 90.02L87.95 100.91H118.64V110.9Z" fill="black"/>
</svg>
