<svg width="120" height="120" viewBox="0 0 120 120" fill="none" xmlns="http://www.w3.org/2000/svg">
<path d="M114 35.4167C104.649 15.1056 84.0685 1 60.1832 1C27.4972 1 1 27.4152 1 60C1 92.5848 27.4972 119 60.1832 119C63.8894 119 67.516 118.66 71.0334 118.011" stroke="black"/>
<path d="M94.42 73.46C98.02 73.46 100.66 72.74 102.34 71.3C104.08 69.8 104.95 67.91 104.95 65.63V65C104.95 62.42 104.11 60.41 102.43 58.97C100.81 57.47 98.56 56.72 95.68 56.72C92.92 56.72 90.46 57.38 88.3 58.7C86.2 60.02 84.37 61.88 82.81 64.28L75.25 57.44C76.33 56 77.5 54.65 78.76 53.39C80.08 52.07 81.58 50.96 83.26 50.06C84.94 49.1 86.83 48.35 88.93 47.81C91.03 47.27 93.4 47 96.04 47C99.22 47 102.1 47.39 104.68 48.17C107.32 48.89 109.57 49.97 111.43 51.41C113.35 52.85 114.82 54.59 115.84 56.63C116.86 58.61 117.37 60.86 117.37 63.38C117.37 65.42 117.04 67.25 116.38 68.87C115.78 70.49 114.91 71.9 113.77 73.1C112.69 74.3 111.4 75.29 109.9 76.07C108.46 76.79 106.93 77.33 105.31 77.69V78.23C107.11 78.59 108.82 79.16 110.44 79.94C112.06 80.72 113.44 81.77 114.58 83.09C115.78 84.35 116.71 85.85 117.37 87.59C118.09 89.33 118.45 91.31 118.45 93.53C118.45 96.29 117.88 98.81 116.74 101.09C115.66 103.37 114.1 105.32 112.06 106.94C110.02 108.56 107.59 109.82 104.77 110.72C101.95 111.56 98.8 111.98 95.32 111.98C92.26 111.98 89.56 111.65 87.22 110.99C84.88 110.39 82.81 109.55 81.01 108.47C79.27 107.39 77.74 106.16 76.42 104.78C75.1 103.34 73.96 101.84 73 100.28L81.73 93.62C82.45 94.88 83.23 96.05 84.07 97.13C84.91 98.15 85.87 99.05 86.95 99.83C88.03 100.61 89.26 101.21 90.64 101.63C92.02 102.05 93.58 102.26 95.32 102.26C98.8 102.26 101.47 101.42 103.33 99.74C105.19 98.06 106.12 95.75 106.12 92.81V92.18C106.12 89.3 105.1 87.11 103.06 85.61C101.08 84.11 98.2 83.36 94.42 83.36H88.21V73.46H94.42Z" fill="black"/>
</svg>
