<svg width="40" height="48" viewBox="0 0 40 48" fill="none" xmlns="http://www.w3.org/2000/svg">
<path d="M4.57924e-07 12.0001L9.99998 6L20 12.0001L9.99998 18L4.57924e-07 12.0001Z" fill="#007800"/>
<path d="M20 12.0001L30 6L40 12.0001L30 18L20 12.0001Z" fill="#007800"/>
<path d="M10.0001 29.9998L20.0001 23.9998L30.0001 29.9998L20.0001 35.9998L10.0001 29.9998Z" fill="#007800"/>
<path d="M10 6.00008L20 -7.63195e-07L30 6.00008L20 12L10 6.00008Z" fill="#007800"/>
<path d="M0.000366211 11.9998L10.0004 17.9998L10.0004 29.9998L0.000367127 23.9998L0.000366211 11.9998Z" fill="#0A9A0A"/>
<path d="M20 12L30 18L30 30L20 24L20 12Z" fill="#0A9A0A"/>
<path d="M0.000366211 23.9998L10.0004 29.9998L10.0004 41.9998L0.000367127 35.9998L0.000366211 23.9998Z" fill="#0A9A0A"/>
<path d="M10.0002 29.9998L20.0002 35.9998L20.0002 47.9998L10.0002 41.9998L10.0002 29.9998Z" fill="#0A9A0A"/>
<path d="M20.0004 11.9998L10.0004 17.9998L10.0004 29.9998L20.0004 23.9998L20.0004 11.9998Z" fill="#004500"/>
<path d="M40 12L30 18L30 30L40 24L40 12Z" fill="#004500"/>
<path d="M40 24L30 30L30 42L40 36L40 24Z" fill="#004500"/>
<path d="M29.9999 30L19.9999 36L19.9999 48L29.9999 42L29.9999 30Z" fill="#004500"/>
</svg>
